<?xml version="1.0" standalone="no"?>
<!DOCTYPE svg PUBLIC "-//W3C//DTD SVG 20010904//EN"
 "http://www.w3.org/TR/2001/REC-SVG-20010904/DTD/svg10.dtd">
<svg version="1.0" xmlns="http://www.w3.org/2000/svg"
 width="512.000000pt" height="512.000000pt" viewBox="0 0 512.000000 512.000000"
 preserveAspectRatio="xMidYMid meet">
<metadata>
Created by potrace 1.14, written by Peter Selinger 2001-2017
</metadata>
<g transform="translate(0.000000,512.000000) scale(0.100000,-0.100000)"
fill="#000000" stroke="none">
<path d="M2447 4434 c-217 -56 -361 -259 -343 -482 3 -40 10 -81 16 -91 9 -17
1 -21 -83 -41 -303 -72 -632 -234 -872 -430 -106 -86 -126 -110 -123 -139 1
-14 6 -32 11 -38 6 -9 -9 -32 -49 -73 -33 -34 -60 -65 -62 -70 -2 -5 -23 -7
-46 -4 -49 7 -66 -5 -133 -96 -205 -281 -353 -637 -399 -960 -2 -19 -7 -44 -9
-56 -8 -36 -18 -215 -19 -343 l-1 -124 -42 -12 c-180 -53 -297 -221 -289 -415
7 -174 126 -322 303 -375 40 -12 145 -14 635 -12 574 2 587 2 602 22 9 11 16
27 16 35 0 13 17 15 97 15 95 0 96 0 105 -26 5 -14 20 -31 34 -38 40 -18 2941
-15 3010 3 100 26 165 73 252 181 27 32 55 131 58 203 9 187 -110 353 -291
407 l-40 12 -1 124 c-2 125 -10 274 -20 339 -58 407 -194 735 -438 1059 -74
99 -281 315 -351 366 -22 17 -49 38 -60 48 -25 22 -195 137 -250 168 -50 28
-210 107 -244 121 -80 31 -189 70 -210 74 -13 3 -31 9 -40 13 -9 5 -18 9 -21
8 -3 0 -38 8 -78 18 l-74 18 7 31 c25 117 13 223 -36 322 -96 191 -316 291
-522 238z"/>
</g>
</svg>
